<mxfile host="app.diagrams.net" modified="2024-10-30T06:02:47.779Z" agent="Mozilla/5.0 (Windows NT 10.0; Win64; x64) AppleWebKit/537.36 (KHTML, like Gecko) Chrome/130.0.0.0 Safari/537.36" etag="ndtCJcrJzgOblJ81iuHj" version="23.1.5" type="github">
  <diagram name="第 1 页" id="S8bussWibCPvi5yHTM9a">
    <mxGraphModel dx="2035" dy="1030" grid="1" gridSize="10" guides="1" tooltips="1" connect="1" arrows="1" fold="1" page="1" pageScale="1" pageWidth="827" pageHeight="1169" math="0" shadow="0">
      <root>
        <mxCell id="0" />
        <mxCell id="1" parent="0" />
        <mxCell id="fiiguD0jD5A8EyY_WMKD-3" value="" style="rounded=1;whiteSpace=wrap;html=1;fillColor=#ee4f12;strokeColor=none;" vertex="1" parent="1">
          <mxGeometry x="250" y="144" width="210" height="200" as="geometry" />
        </mxCell>
        <mxCell id="fiiguD0jD5A8EyY_WMKD-2" value="" style="ellipse;whiteSpace=wrap;html=1;aspect=fixed;fillColor=#FFFFFF;strokeColor=#FFFFFF;" vertex="1" parent="1">
          <mxGeometry x="277.5" y="167.5" width="155" height="155" as="geometry" />
        </mxCell>
        <mxCell id="fiiguD0jD5A8EyY_WMKD-1" value="" style="ellipse;whiteSpace=wrap;html=1;aspect=fixed;fillColor=#EE4F12;strokeColor=#FFFFFF;" vertex="1" parent="1">
          <mxGeometry x="300" y="190" width="110" height="110" as="geometry" />
        </mxCell>
        <mxCell id="fiiguD0jD5A8EyY_WMKD-4" value="" style="rounded=1;whiteSpace=wrap;html=1;strokeColor=none;" vertex="1" parent="1">
          <mxGeometry x="390" y="235" width="42.5" height="20" as="geometry" />
        </mxCell>
        <mxCell id="fiiguD0jD5A8EyY_WMKD-6" value="" style="ellipse;whiteSpace=wrap;html=1;aspect=fixed;strokeColor=none;" vertex="1" parent="1">
          <mxGeometry x="337.5" y="226.5" width="35" height="35" as="geometry" />
        </mxCell>
        <mxCell id="fiiguD0jD5A8EyY_WMKD-7" value="" style="rounded=1;whiteSpace=wrap;html=1;fillColor=#EE4F12;strokeColor=none;" vertex="1" parent="1">
          <mxGeometry x="380" y="210" width="80" height="25" as="geometry" />
        </mxCell>
        <mxCell id="fiiguD0jD5A8EyY_WMKD-8" value="" style="rounded=1;whiteSpace=wrap;html=1;fillColor=#fff2cc;strokeColor=#d6b656;" vertex="1" parent="1">
          <mxGeometry x="420" y="120" width="120" height="60" as="geometry" />
        </mxCell>
        <mxCell id="fiiguD0jD5A8EyY_WMKD-9" value="" style="rounded=0;whiteSpace=wrap;html=1;direction=south;rotation=313;strokeColor=none;fillColor=default;" vertex="1" parent="1">
          <mxGeometry x="432.5" y="57.25" width="120" height="143.75" as="geometry" />
        </mxCell>
      </root>
    </mxGraphModel>
  </diagram>
</mxfile>
